<svg    xmlns:dc="http://purl.org/dc/elements/1.1/"    xmlns:cc="http://creativecommons.org/ns#"    xmlns:rdf="http://www.w3.org/1999/02/22-rdf-syntax-ns#"    xmlns:svg="http://www.w3.org/2000/svg"    xmlns="http://www.w3.org/2000/svg"    xmlns:xlink="http://www.w3.org/1999/xlink"    xmlns:sodipodi="http://sodipodi.sourceforge.net/DTD/sodipodi-0.dtd"    xmlns:inkscape="http://www.inkscape.org/namespaces/inkscape"    height="182.88"    width="115.69"    inkscape:version="1.0 (4035a4f, 2020-05-01)"    inkscape:export-ydpi="310"    inkscape:output_extension="org.inkscape.output.svg.inkscape"    version="1.0"    inkscape:export-xdpi="310"    sodipodi:version="0.32"    viewBox="0 0 115.69 182.88"    inkscape:export-filename="C:\Documents and Settings\Dan\Skrivbord\Clipart egna (InkScape)\Original\Kanske Upload\Glödlampa.png"    sodipodi:docname="on.svg"    id="svg2">   <defs      id="defs4">     <linearGradient        id="linearGradient4204"        inkscape:collect="always">       <stop          id="stop4206"          style="stop-color:#fefef9;stop-opacity:0.31390134"          offset="0" />       <stop          id="stop4208"          style="stop-color:#3d3d3d;stop-opacity:.53589"          offset="1" />     </linearGradient>     <linearGradient        inkscape:collect="always"        id="linearGradient4115">       <stop          offset="0"          style="stop-color:#959595;stop-opacity:.30622"          id="stop4117" />       <stop          offset="1"          style="stop-color:#3d3d3d;stop-opacity:.53589"          id="stop4119" />     </linearGradient>     <linearGradient        inkscape:collect="always"        id="linearGradient4015">       <stop          offset="0"          style="stop-color:#000000"          id="stop4017" />       <stop          offset="1"          style="stop-color:#000000;stop-opacity:0"          id="stop4019" />     </linearGradient>     <linearGradient        inkscape:collect="always"        id="linearGradient3993">       <stop          offset="0"          style="stop-color:#585858"          id="stop3995" />       <stop          offset="1"          style="stop-color:#434343"          id="stop3997" />     </linearGradient>     <linearGradient        inkscape:collect="always"        id="linearGradient3951">       <stop          offset="0"          style="stop-color:#808080"          id="stop3953" />       <stop          offset="1"          style="stop-color:#5b5b5b"          id="stop3955" />     </linearGradient>     <linearGradient        inkscape:collect="always"        x1="340.54999"        y1="707.60999"        gradientTransform="translate(-111.02)"        x2="371.79999"        gradientUnits="userSpaceOnUse"        xlink:href="#linearGradient3951"        y2="707.60999"        id="linearGradient4252" />     <linearGradient        inkscape:collect="always"        x1="425.29999"        y1="686.33002"        gradientTransform="translate(-179.78)"        x2="425.29999"        gradientUnits="userSpaceOnUse"        xlink:href="#linearGradient4015"        y2="700.67999"        id="linearGradient4254" />     <linearGradient        inkscape:collect="always"        x1="178.75"        y1="127.11"        gradientTransform="translate(84.033,580)"        x2="140.99001"        gradientUnits="userSpaceOnUse"        xlink:href="#linearGradient3993"        y2="127.11"        id="linearGradient4256" />     <linearGradient        inkscape:collect="always"        x1="353.85999"        y1="690.17999"        gradientTransform="translate(-111.02)"        x2="353.85999"        gradientUnits="userSpaceOnUse"        xlink:href="#linearGradient4015"        y2="693.88"        id="linearGradient4260" />     <linearGradient        inkscape:collect="always"        x1="316.29999"        y1="614.85999"        gradientTransform="translate(-111.02)"        x2="388.54999"        gradientUnits="userSpaceOnUse"        xlink:href="#linearGradient4115"        y2="640.85999"        id="linearGradient4262" />     <linearGradient        inkscape:collect="always"        x1="362.04999"        y1="685.28998"        gradientTransform="translate(-111.02)"        x2="362.04999"        gradientUnits="userSpaceOnUse"        y2="652.84003"        id="linearGradient4264">       <stop          offset="0"          style="stop-color:#b9b9b9"          id="stop4127" />       <stop          offset="1"          style="stop-color:#cecece;stop-opacity:0"          id="stop4129" />     </linearGradient>     <linearGradient        inkscape:collect="always"        x1="362.04999"        y1="685.28998"        gradientTransform="translate(-144.02)"        x2="361.54999"        gradientUnits="userSpaceOnUse"        y2="650.59003"        id="linearGradient4278">       <stop          offset="0"          style="stop-color:#e9e337;stop-opacity:1"          id="stop4195" />       <stop          offset="1"          style="stop-color:#f9fca2;stop-opacity:0"          id="stop4197" />     </linearGradient>     <linearGradient        y2="707.60999"        x2="371.79999"        y1="707.60999"        x1="340.54999"        gradientTransform="translate(-144.02)"        gradientUnits="userSpaceOnUse"        id="linearGradient4181"        xlink:href="#linearGradient3951"        inkscape:collect="always" />     <linearGradient        y2="700.67999"        x2="425.29999"        y1="686.33002"        x1="425.29999"        gradientTransform="translate(-212.78)"        gradientUnits="userSpaceOnUse"        id="linearGradient4183"        xlink:href="#linearGradient4015"        inkscape:collect="always" />     <linearGradient        y2="127.11"        x2="140.99001"        y1="127.11"        x1="178.75"        gradientTransform="translate(51.033,580)"        gradientUnits="userSpaceOnUse"        id="linearGradient4185"        xlink:href="#linearGradient3993"        inkscape:collect="always" />     <linearGradient        y2="707.60999"        x2="371.79999"        y1="707.60999"        x1="340.54999"        gradientTransform="translate(-144.02)"        gradientUnits="userSpaceOnUse"        id="linearGradient4187"        xlink:href="#linearGradient3951"        inkscape:collect="always" />     <linearGradient        y2="693.88"        x2="353.85999"        y1="690.17999"        x1="353.85999"        gradientTransform="translate(-144.02)"        gradientUnits="userSpaceOnUse"        id="linearGradient4189"        xlink:href="#linearGradient4015"        inkscape:collect="always" />     <linearGradient        y2="640.85999"        x2="388.54999"        y1="614.85999"        x1="316.29999"        gradientTransform="translate(-144.02)"        gradientUnits="userSpaceOnUse"        id="linearGradient4191"        xlink:href="#linearGradient4204"        inkscape:collect="always" />     <linearGradient        y2="707.60999"        x2="371.79999"        y1="707.60999"        x1="340.54999"        gradientTransform="translate(-111.02)"        gradientUnits="userSpaceOnUse"        id="linearGradient168"        xlink:href="#linearGradient3951"        inkscape:collect="always" />   </defs>   <sodipodi:namedview      inkscape:document-rotation="0"      fit-margin-top="0"      inkscape:window-height="1005"      gridtolerance="10000"      pagecolor="#ffffff"      inkscape:pageshadow="2"      inkscape:pageopacity="0.0"      inkscape:window-width="1680"      fit-margin-bottom="0"      inkscape:window-y="23"      objecttolerance="10"      guidetolerance="10"      inkscape:window-x="0"      bordercolor="#666666"      inkscape:document-units="px"      fit-margin-right="0"      showgrid="false"      inkscape:window-maximized="1"      inkscape:cy="138.69088"      inkscape:cx="19.950352"      inkscape:current-layer="layer2"      borderopacity="1.0"      inkscape:zoom="1"      fit-margin-left="0"      id="base" />   <g      transform="translate(-200.08,-570.09)"      inkscape:groupmode="layer"      id="layer2">     <g        inkscape:export-ydpi="310"        inkscape:export-xdpi="310"        transform="translate(-273.4987,9.5)"        id="g4131">       <rect          x="227.55"          y="687.35999"          width="33.75"          height="31.25"          ry="0"          rx="0"          style="color:#000000;fill:url(#linearGradient168)"          id="rect3835" />       <rect          x="227.55"          y="687.35999"          width="33.75"          height="31.25"          ry="0"          rx="0"          style="color:#000000;fill:url(#linearGradient4254)"          id="rect4011" />       <path          inkscape:connector-curvature="0"          style="fill:url(#linearGradient4256)"          d="m 225.53,695.84 v 2.4375 l 17.75,-2.4375 z m 37.75,0.25 -37.75,5.1875 v 2.0625 l 37.75,-5.1875 z m 0,5.0625 -37.75,5.1875 v 2.0625 l 37.75,-5.1875 z m 0,5.0625 -37.75,5.1875 v 2.0312 l 37.75,-5.1875 z m 0,5.0312 -37.75,5.1875 v 2.0625 l 37.75,-5.1875 z"          id="path3869" />       <path          inkscape:connector-curvature="0"          style="color:#000000;fill:url(#linearGradient4252)"          sodipodi:nodetypes="csssscc"          d="m 225.17,688.22 v 5.25 c 0,1.385 1.115,2.5 2.5,2.5 h 33.5 c 1.385,0 2.5,-1.115 2.5,-2.5 v -5.25 z"          id="rect3837" />       <path          d="m 225.17,688.22 v 5.25 c 0,1.385 1.115,2.5 2.5,2.5 h 33.5 c 1.385,0 2.5,-1.115 2.5,-2.5 v -5.25 z"          inkscape:connector-curvature="0"          style="color:#000000;fill:url(#linearGradient4260)"          sodipodi:nodetypes="csssscc"          id="path4001" />       <path          inkscape:connector-curvature="0"          style="opacity:0.68293;fill:url(#linearGradient4262)"          sodipodi:nodetypes="sscccssccccss"          d="m 244.42,581.09 c -24.493,0 -44.344,19.851 -44.344,44.344 0,11.167 4.1252,21.359 10.938,29.156 3.878,4.0518 6.5995,9.9233 7.4688,16.656 l 0.0191,12.429 c 0,4.4527 3.5756,8.0284 8.0284,8.0284 h 35.78 c 4.4527,0 8.0284,-3.5756 8.0284,-8.0284 l -0.0121,-12.429 c 0.86451,-6.7196 3.6103,-12.574 7.4688,-16.625 0.003,-0.01 -0.002,-0.0215 0,-0.0312 6.8156,-7.7976 10.969,-17.986 10.969,-29.156 0,-24.493 -19.851,-44.344 -44.344,-44.344 z"          id="path3032" />       <path          inkscape:connector-curvature="0"          style="color:#000000;fill:#808080"          sodipodi:nodetypes="ccccc"          d="m 227.53,718.59 4.25,4.75 h 25.25 l 4.25,-4.75 z"          id="rect3880" />       <path          inkscape:connector-curvature="0"          style="color:#000000;fill:#343434"          sodipodi:nodetypes="csssscc"          d="m 231.77,723.34 c 0,1.0374 0.52146,2.0748 1.5644,2.8696 l 7.3055,5.568 c 2.0859,1.5898 5.4444,1.5898 7.5303,0 l 7.3055,-5.568 c 1.043,-0.79489 1.5644,-1.8323 1.5644,-2.8696 z"          id="rect3883" />       <path          inkscape:connector-curvature="0"          style="fill:url(#linearGradient4264)"          sodipodi:nodetypes="sscccssccccss"          d="m 244.42,581.09 c -24.493,0 -44.344,19.851 -44.344,44.344 0,11.167 4.1252,21.359 10.938,29.156 3.878,4.0518 6.5995,9.9233 7.4688,16.656 l 0.0191,12.429 c 0,4.4527 3.5756,8.0284 8.0284,8.0284 h 35.78 c 4.4527,0 8.0284,-3.5756 8.0284,-8.0284 l -0.0121,-12.429 c 0.86451,-6.7196 3.6103,-12.574 7.4688,-16.625 0.003,-0.01 -0.002,-0.0215 0,-0.0312 6.8156,-7.7976 10.969,-17.986 10.969,-29.156 0,-24.493 -19.851,-44.344 -44.344,-44.344 z"          id="path4121" />       <path          inkscape:connector-curvature="0"          style="fill:#ffffff"          d="m 231.38,591.37 c -13.547,6.7471 -22.938,20.62 -22.938,36.812 0,0.60674 0.12823,1.3296 0.1875,1.9688 l 11.938,-2.0312 c 1.356,-11.127 7.9158,-20.595 17.25,-25.906 l -6.4375,-10.844 z"          id="path3948" />     </g>     <g        transform="translate(-104,10)"        id="g4210">       <g          id="g4153"          transform="translate(151.5,-5.5)">         <path            d="m 211.42,581.09 c -24.493,0 -44.344,19.851 -44.344,44.344 0,11.167 4.1252,21.359 10.938,29.156 3.878,4.0518 6.5995,9.9233 7.4688,16.656 l 0.0191,12.429 c 0,4.4527 3.5756,8.0284 8.0284,8.0284 h 35.78 c 4.4527,0 8.0284,-3.5756 8.0284,-8.0284 l -0.0121,-12.429 c 0.86451,-6.7196 3.6103,-12.574 7.4688,-16.625 0.003,-0.01 -0.002,-0.0215 0,-0.0312 6.8156,-7.7976 10.969,-17.986 10.969,-29.156 0,-24.493 -19.851,-44.344 -44.344,-44.344 z"            inkscape:connector-curvature="0"            style="opacity:0.68293;fill:#f9ff00;fill-opacity:1"            sodipodi:nodetypes="sscccssccccss"            id="path4189"            inkscape:export-xdpi="310"            inkscape:export-ydpi="310" />         <rect            x="194.55"            y="687.35999"            width="33.75"            height="31.25"            ry="0"            rx="0"            style="color:#000000;fill:url(#linearGradient4181)"            id="rect4155"            inkscape:export-xdpi="310"            inkscape:export-ydpi="310" />         <rect            x="194.55"            y="687.35999"            width="33.75"            height="31.25"            ry="0"            rx="0"            style="color:#000000;fill:url(#linearGradient4183)"            id="rect4157"            inkscape:export-xdpi="310"            inkscape:export-ydpi="310" />         <path            inkscape:connector-curvature="0"            style="fill:url(#linearGradient4185)"            d="m 192.53,695.84 v 2.4375 l 17.75,-2.4375 z m 37.75,0.25 -37.75,5.1875 v 2.0625 l 37.75,-5.1875 z m 0,5.0625 -37.75,5.1875 v 2.0625 l 37.75,-5.1875 z m 0,5.0625 -37.75,5.1875 v 2.0312 l 37.75,-5.1875 z m 0,5.0312 -37.75,5.1875 v 2.0625 l 37.75,-5.1875 z"            id="path4159"            inkscape:export-xdpi="310"            inkscape:export-ydpi="310" />         <path            inkscape:connector-curvature="0"            style="color:#000000;fill:url(#linearGradient4187)"            sodipodi:nodetypes="csssscc"            d="m 192.17,688.22 v 5.25 c 0,1.385 1.115,2.5 2.5,2.5 h 33.5 c 1.385,0 2.5,-1.115 2.5,-2.5 v -5.25 z"            id="path4161"            inkscape:export-xdpi="310"            inkscape:export-ydpi="310" />         <path            d="m 192.17,688.22 v 5.25 c 0,1.385 1.115,2.5 2.5,2.5 h 33.5 c 1.385,0 2.5,-1.115 2.5,-2.5 v -5.25 z"            inkscape:connector-curvature="0"            style="color:#000000;fill:url(#linearGradient4189)"            sodipodi:nodetypes="csssscc"            id="path4163"            inkscape:export-xdpi="310"            inkscape:export-ydpi="310" />         <path            inkscape:connector-curvature="0"            style="opacity:0.282;fill:url(#linearGradient4191)"            sodipodi:nodetypes="sscccssccccss"            d="m 211.42,581.09 c -24.493,0 -44.344,19.851 -44.344,44.344 0,11.167 4.1252,21.359 10.938,29.156 3.878,4.0518 6.5995,9.9233 7.4688,16.656 l 0.0191,12.429 c 0,4.4527 3.5756,8.0284 8.0284,8.0284 h 35.78 c 4.4527,0 8.0284,-3.5756 8.0284,-8.0284 l -0.0121,-12.429 c 0.86451,-6.7196 3.6103,-12.574 7.4688,-16.625 0.003,-0.01 -0.002,-0.0215 0,-0.0312 6.8156,-7.7976 10.969,-17.986 10.969,-29.156 0,-24.493 -19.851,-44.344 -44.344,-44.344 z"            id="path4165"            inkscape:export-xdpi="310"            inkscape:export-ydpi="310" />         <path            inkscape:connector-curvature="0"            style="color:#000000;fill:#808080"            sodipodi:nodetypes="ccccc"            d="m 194.53,718.59 4.25,4.75 h 25.25 l 4.25,-4.75 z"            id="path4167"            inkscape:export-xdpi="310"            inkscape:export-ydpi="310" />         <path            inkscape:connector-curvature="0"            style="color:#000000;fill:#343434"            sodipodi:nodetypes="csssscc"            d="m 198.77,723.34 c 0,1.0374 0.52146,2.0748 1.5644,2.8696 l 7.3055,5.568 c 2.0859,1.5898 5.4444,1.5898 7.5303,0 l 7.3055,-5.568 c 1.043,-0.79489 1.5644,-1.8323 1.5644,-2.8696 z"            id="path4169"            inkscape:export-xdpi="310"            inkscape:export-ydpi="310" />         <path            inkscape:connector-curvature="0"            style="fill:url(#linearGradient4278)"            sodipodi:nodetypes="sscccssccccss"            d="m 211.42,581.09 c -24.493,0 -44.344,19.851 -44.344,44.344 0,11.167 4.1252,21.359 10.938,29.156 3.878,4.0518 6.5995,9.9233 7.4688,16.656 l 0.0191,12.429 c 0,4.4527 3.5756,8.0284 8.0284,8.0284 h 35.78 c 4.4527,0 8.0284,-3.5756 8.0284,-8.0284 l -0.0121,-12.429 c 0.86451,-6.7196 3.6103,-12.574 7.4688,-16.625 0.003,-0.01 -0.002,-0.0215 0,-0.0312 6.8156,-7.7976 10.969,-17.986 10.969,-29.156 0,-24.493 -19.851,-44.344 -44.344,-44.344 z"            id="path4171"            inkscape:export-xdpi="310"            inkscape:export-ydpi="310" />         <path            inkscape:connector-curvature="0"            style="fill:#ffffff"            d="m 198.38,591.37 c -13.547,6.7471 -22.938,20.62 -22.938,36.812 0,0.60674 0.12823,1.3296 0.1875,1.9688 l 11.938,-2.0312 c 1.356,-11.127 7.9158,-20.595 17.25,-25.906 l -6.4375,-10.844 z"            id="path4173"            inkscape:export-xdpi="310"            inkscape:export-ydpi="310" />       </g>     </g>   </g>   <metadata      id="metadata53">     <rdf:RDF>       <cc:Work>         <dc:format>image/svg+xml</dc:format>         <dc:type            rdf:resource="http://purl.org/dc/dcmitype/StillImage" />         <cc:license            rdf:resource="http://creativecommons.org/publicdomain/zero/1.0/" />         <dc:publisher>           <cc:Agent              rdf:about="http://openclipart.org/">             <dc:title>Openclipart</dc:title>           </cc:Agent>         </dc:publisher>         <dc:title></dc:title>         <dc:date>2012-01-29T20:01:03</dc:date>         <dc:description>Light Bulbs</dc:description>         <dc:source>https://openclipart.org/detail/167552/light-bulbs-by-printerkiller</dc:source>         <dc:creator>           <cc:Agent>             <dc:title>PrinterKiller</dc:title>           </cc:Agent>         </dc:creator>         <dc:subject>           <rdf:Bag>             <rdf:li>Light Bulbs on/off bulb</rdf:li>           </rdf:Bag>         </dc:subject>       </cc:Work>       <cc:License          rdf:about="http://creativecommons.org/publicdomain/zero/1.0/">         <cc:permits            rdf:resource="http://creativecommons.org/ns#Reproduction" />         <cc:permits            rdf:resource="http://creativecommons.org/ns#Distribution" />         <cc:permits            rdf:resource="http://creativecommons.org/ns#DerivativeWorks" />       </cc:License>     </rdf:RDF>   </metadata> </svg>