<?xml version="1.0" encoding="UTF-8" standalone="no"?>
<svg
   xmlns:dc="http://purl.org/dc/elements/1.1/"
   xmlns:cc="http://creativecommons.org/ns#"
   xmlns:rdf="http://www.w3.org/1999/02/22-rdf-syntax-ns#"
   xmlns:svg="http://www.w3.org/2000/svg"
   xmlns="http://www.w3.org/2000/svg"
   xmlns:sodipodi="http://sodipodi.sourceforge.net/DTD/sodipodi-0.dtd"
   xmlns:inkscape="http://www.inkscape.org/namespaces/inkscape"
   inkscape:version="1.0 (4035a4f, 2020-05-01)"
   sodipodi:docname="streamline-icon-male-plug@400x400.svg"
   id="svg464"
   height="400"
   width="400"
   viewBox="0 0 400 400"
   version="1.1">
  <metadata
     id="metadata470">
    <rdf:RDF>
      <cc:Work
         rdf:about="">
        <dc:format>image/svg+xml</dc:format>
        <dc:type
           rdf:resource="http://purl.org/dc/dcmitype/StillImage" />
      </cc:Work>
    </rdf:RDF>
  </metadata>
  <defs
     id="defs468" />
  <sodipodi:namedview
     inkscape:current-layer="svg464"
     inkscape:window-maximized="0"
     inkscape:window-y="0"
     inkscape:window-x="0"
     inkscape:cy="221.03938"
     inkscape:cx="-78.244087"
     inkscape:zoom="1.1712362"
     showgrid="false"
     id="namedview466"
     inkscape:window-height="1050"
     inkscape:window-width="1680"
     inkscape:pageshadow="2"
     inkscape:pageopacity="0"
     guidetolerance="10"
     gridtolerance="10"
     objecttolerance="10"
     borderopacity="1"
     bordercolor="#666666"
     pagecolor="#ffffff" />
  <g
     transform="translate(0.51692159,6.8317435)"
     id="g532">
    <g
       id="g518"
       transform="translate(1.7075976,18.783573)">
      <path
         style="stroke-width:4"
         d="m 253.444,206.74 v 14.944 A 25.012,25.012 0 0 1 237.6,245.06 35.644,35.644 0 0 0 216.584,268.056"
         fill="none"
         stroke="#7c7c7c"
         stroke-linecap="round"
         stroke-linejoin="round"
         id="path442" />
      <path
         style="stroke-width:4"
         d="m 250.896,329.36 a 51.2,51.2 0 0 1 -50.844,-46 44.664,44.664 0 0 1 -0.256,-5.108 48.664,48.664 0 0 1 1.028,-10.216 50.612,50.612 0 0 1 31.104,-37.168 9.868,9.868 0 0 0 6.188,-9.2 V 206.74"
         fill="none"
         stroke="#7c7c7c"
         stroke-linecap="round"
         stroke-linejoin="round"
         id="path444" />
      <path
         style="stroke-width:4"
         d="m 215.508,283.38 a 34.12,34.12 0 0 1 -0.4,-5.108 36.44,36.44 0 0 1 1.468,-10.216"
         fill="none"
         stroke="#7c7c7c"
         stroke-linecap="round"
         stroke-linejoin="round"
         id="path448" />
      <path
         style="stroke-width:4"
         d="m 295.6,156.92 a 49.816,49.816 0 0 1 -51.352,49.792 c -27.26,-0.8 -48.28,-24.604 -48.28,-51.884 v -32.4 a 7.664,7.664 0 0 1 7.66,-7.668 h 84.308 a 7.664,7.664 0 0 1 7.664,7.672 z"
         fill="none"
         stroke="#7c7c7c"
         stroke-linecap="round"
         stroke-linejoin="round"
         id="path454" />
      <path
         style="stroke-width:4"
         d="M 272.608,114.764 H 257.28 V 80.28 a 7.664,7.664 0 1 1 15.328,0 z"
         fill="none"
         stroke="#7c7c7c"
         stroke-linecap="round"
         stroke-linejoin="round"
         id="path456" />
      <path
         style="stroke-width:4"
         d="m 218.956,114.764 h 15.328 V 80.28 a 7.664,7.664 0 1 0 -15.328,0 z"
         fill="none"
         stroke="#7c7c7c"
         stroke-linecap="round"
         stroke-linejoin="round"
         id="path458" />
      <path
         style="stroke-width:4"
         d="m 195.968,130.088 h 99.636 v 15.336 h -99.636 z"
         fill="none"
         stroke="#7c7c7c"
         stroke-linecap="round"
         stroke-linejoin="round"
         id="path460" />
    </g>
    <g
       transform="matrix(1.3964206,0,0,1.371493,-126.5526,-110.48034)"
       id="g338">
      <path
         style="stroke-width:4"
         d="m 172.34294,137.85897 a 8.348,8.348 0 0 1 -5.896,-14.26 50.116,50.116 0 0 1 70.852,0 8.356,8.356 0 1 1 -11.812,11.82 33.4,33.4 0 0 0 -47.244,0 8.332,8.332 0 0 1 -5.9,2.44 z"
         fill="none"
         stroke="#7c7c7c"
         stroke-linecap="round"
         stroke-linejoin="round"
         id="path254" />
      <path
         style="stroke-width:4"
         d="m 215.64694,165.82697 a 8.312,8.312 0 0 1 -5.908,-2.452 11.4,11.4 0 0 0 -15.736,0 8.3495188,8.3495188 0 1 1 -11.816,-11.8 27.828,27.828 0 0 1 39.372,0 8.356,8.356 0 0 1 -5.912,14.252 z"
         fill="none"
         stroke="#7c7c7c"
         stroke-linecap="round"
         stroke-linejoin="round"
         id="path256" />
      <path
         style="stroke-width:4"
         d="m 201.87094,199.08297 a 11.136,11.136 0 1 1 11.136,-11.136 11.152,11.152 0 0 1 -11.136,11.136 z"
         fill="none"
         stroke="#7c7c7c"
         stroke-linecap="round"
         stroke-linejoin="round"
         id="path258" />
    </g>
  </g>
</svg>
